<?xml version="1.0" encoding="utf-8"?>
<svg xmlns="http://www.w3.org/2000/svg" xmlns:xlink="http://www.w3.org/1999/xlink">
    <symbol viewBox="0 0 477.175 477.175" id="button--next" xmlns="http://www.w3.org/2000/svg">
        <path d="M360.731 229.075l-225.1-225.1c-5.3-5.3-13.8-5.3-19.1 0s-5.3 13.8 0 19.1l215.5 215.5-215.5 215.5c-5.3 5.3-5.3 13.8 0 19.1 2.6 2.6 6.1 4 9.5 4 3.4 0 6.9-1.3 9.5-4l225.1-225.1c5.3-5.2 5.3-13.8.1-19z"/>
    </symbol>
    <symbol viewBox="0 0 477.175 477.175" id="button--prev" xmlns="http://www.w3.org/2000/svg">
        <path d="M145.188 238.575l215.5-215.5c5.3-5.3 5.3-13.8 0-19.1s-13.8-5.3-19.1 0l-225.1 225.1c-5.3 5.3-5.3 13.8 0 19.1l225.1 225c2.6 2.6 6.1 4 9.5 4s6.9-1.3 9.5-4c5.3-5.3 5.3-13.8 0-19.1l-215.4-215.5z"/>
    </symbol>
    <symbol viewBox="0 -15 966.25 966" id="checklists" xmlns="http://www.w3.org/2000/svg">
        <path d="M77.922 841.703h405.203v-31.176H77.922c-25.82 0-46.754-20.933-46.754-46.754V78.047c0-25.828 20.934-46.754 46.754-46.754h685.726c25.832 0 46.754 20.926 46.754 46.754v358.445h31.176V78.047c-.05-43.016-34.91-77.871-77.93-77.922H77.922C34.914.175.055 35.031 0 78.047v685.726c.055 43.016 34.914 77.872 77.922 77.93zm0 0"/>
        <path d="M62.344 62.469h31.164v31.164H62.344zm62.332 0h31.176v31.164h-31.176zm62.34 0h31.172v31.164h-31.172zM62.344 124.8h716.89v31.177H62.344zm160.41 66.907l-39.586 39.586c-33.461-22.152-78.27-15.356-103.664 15.723-25.39 31.074-23.113 76.34 5.262 104.71 28.37 28.383 73.64 30.66 104.718 5.266 31.075-25.39 37.875-70.207 15.72-103.66l39.581-39.586zm-82.496 151.277c-25.817 0-46.75-20.93-46.75-46.75 0-25.824 20.933-46.75 46.75-46.75a45.917 45.917 0 0120.031 4.668L129.246 285.2l22.031 22.04 31.067-31.028a45.887 45.887 0 014.672 20.023c0 25.82-20.926 46.75-46.758 46.75zm124.683-93.5h264.934v31.164H264.941zm0 62.336h109.09v31.164h-109.09zm140.262 0h218.18v31.164h-218.18zm155.844-62.336h155.848v31.164H561.047zM222.754 378.723l-39.586 39.586c-33.461-22.153-78.27-15.356-103.664 15.722-25.39 31.078-23.113 76.34 5.262 104.719 28.37 28.375 73.64 30.652 104.718 5.258 31.075-25.395 37.875-70.196 15.72-103.66l39.581-39.586zm-82.496 151.28c-25.817 0-46.75-20.933-46.75-46.753 0-25.824 20.933-46.758 46.75-46.758a45.98 45.98 0 0120.031 4.676l-31.043 31.055 22.031 22.03 31.067-31.03a45.917 45.917 0 014.672 20.027c0 25.82-20.926 46.754-46.758 46.754zm124.683-93.511h264.934v31.172H264.941zm0 62.344h109.09v31.168h-109.09zm140.262 0h124.672v31.168H405.203zm155.844-62.344h62.336v31.172h-62.336zM222.754 565.738l-39.586 39.586c-33.461-22.152-78.27-15.355-103.664 15.723-25.39 31.078-23.113 76.34 5.262 104.719 28.37 28.379 73.64 30.648 104.718 5.257 31.075-25.394 37.875-70.199 15.72-103.664l39.581-39.582zM140.258 717.02c-25.817 0-46.75-20.934-46.75-46.754 0-25.825 20.933-46.754 46.75-46.754a45.866 45.866 0 0120.031 4.672l-31.043 31.054 22.031 22.032 31.067-31.032a45.93 45.93 0 014.672 20.028c0 25.82-20.926 46.754-46.758 46.754zm124.683-93.508H467.54v31.176H264.941zm0 62.34h109.09v31.168h-109.09zm140.262 0h62.336v31.168h-62.336zM732.484 935.21c129.114 0 233.766-104.67 233.766-233.773 0-129.113-104.652-233.773-233.766-233.773-129.113 0-233.773 104.66-233.773 233.774.152 129.042 104.723 233.617 233.773 233.773zm0-436.374c111.887 0 202.602 90.707 202.602 202.601 0 111.895-90.715 202.598-202.602 202.598-111.898 0-202.609-90.703-202.609-202.597.133-111.84 90.762-202.477 202.61-202.602zm0 0"/>
        <path d="M637.418 710.05l-27.898 13.93 31.171 62.34a15.574 15.574 0 0011.45 8.422c.804.125 1.609.192 2.418.203 4.129 0 8.093-1.644 11.023-4.566L852.59 603.363l-22.031-22.039-171.735 171.727zm0 0"/>
    </symbol>
    <symbol viewBox="0 0 97.713 97.713" id="contacts-address" xmlns="http://www.w3.org/2000/svg">
        <path d="M48.855 0C29.021 0 12.883 16.138 12.883 35.974c0 5.174 1.059 10.114 3.146 14.684 8.994 19.681 26.238 40.46 31.31 46.359a2.003 2.003 0 003.034 0c5.07-5.898 22.314-26.676 31.311-46.359 2.088-4.57 3.146-9.51 3.146-14.684C84.828 16.138 68.69 0 48.855 0zm0 54.659c-10.303 0-18.686-8.383-18.686-18.686 0-10.304 8.383-18.687 18.686-18.687s18.686 8.383 18.686 18.687c.001 10.303-8.382 18.686-18.686 18.686z"/>
    </symbol>
    <symbol viewBox="0 0 382.117 382.117" id="contacts-mail" xmlns="http://www.w3.org/2000/svg">
        <path d="M336.764 45.945H45.354C20.346 45.945 0 65.484 0 89.5v203.117c0 24.016 20.346 43.555 45.354 43.555h291.41c25.008 0 45.353-19.539 45.353-43.555V89.5c0-24.016-20.345-43.555-45.353-43.555zm0 251.775H45.354c-3.676 0-6.9-2.384-6.9-5.103V116.359l131.797 111.27a15.014 15.014 0 009.676 3.538l22.259.001c3.536 0 6.974-1.257 9.677-3.539l131.803-111.274v176.264c-.002 2.717-3.227 5.101-6.902 5.101zM191.059 192.987L62.87 84.397h256.378l-128.189 108.59z"/>
    </symbol>
    <symbol viewBox="0 0 35 35" id="contacts-phone" xmlns="http://www.w3.org/2000/svg">
        <path d="M25.302 0H9.698a2.37 2.37 0 00-2.364 2.364v30.271A2.371 2.371 0 009.698 35h15.604a2.37 2.37 0 002.364-2.364V2.364A2.37 2.37 0 0025.302 0zM15.004 1.704h4.992a.286.286 0 010 .573h-4.992a.286.286 0 110-.573zM17.5 33.818a1.182 1.182 0 110-2.364 1.182 1.182 0 010 2.364zm8.521-3.193H8.979V3.749h17.042v26.876z"/>
    </symbol>
    <symbol viewBox="0 0 430.113 430.114" id="contacts-social-facebook" xmlns="http://www.w3.org/2000/svg">
        <path d="M158.081 83.3v59.218h-43.385v72.412h43.385v215.183h89.122V214.936h59.805s5.601-34.721 8.316-72.685H247.54V92.74c0-7.4 9.717-17.354 19.321-17.354h48.557V.001h-66.021C155.878-.004 158.081 72.48 158.081 83.3z"/>
    </symbol>
    <symbol viewBox="0 0 475.092 475.092" id="contacts-social-google" xmlns="http://www.w3.org/2000/svg">
        <path d="M273.372 302.498a148.384 148.384 0 00-16.7-18.842c-6.091-5.804-12.183-11.088-18.271-15.845-6.092-4.757-11.659-9.329-16.702-13.709-5.042-4.374-9.135-8.945-12.275-13.702-3.14-4.757-4.711-9.61-4.711-14.558 0-6.855 2.19-13.278 6.567-19.274 4.377-5.996 9.707-11.799 15.986-17.417 6.28-5.617 12.559-11.753 18.844-18.415 6.276-6.665 11.604-15.465 15.985-26.412 4.373-10.944 6.563-23.458 6.563-37.542 0-16.75-3.713-32.835-11.136-48.25-7.423-15.418-17.89-27.412-31.405-35.976h38.54L303.2 0H178.441c-17.699 0-35.498 1.906-53.384 5.72-26.453 5.9-48.723 19.368-66.806 40.397-18.08 21.033-27.122 44.873-27.122 71.52 0 28.171 10.138 51.583 30.406 70.233 20.269 18.649 44.585 27.978 72.945 27.978 5.71 0 12.371-.478 19.985-1.427-.381 1.521-1.043 3.567-1.997 6.136s-1.715 4.62-2.286 6.14c-.57 1.521-1.047 3.375-1.425 5.566a38.99 38.99 0 00-.571 6.71c0 12.563 6.086 26.744 18.271 42.541-14.465.387-28.737 1.67-42.825 3.86-14.084 2.19-28.833 5.616-44.252 10.28-15.417 4.661-29.217 11.42-41.396 20.27-12.182 8.854-21.317 19.366-27.408 31.549C3.533 361.559.01 374.405.01 386.017c0 12.751 2.857 24.314 8.565 34.69 5.708 10.369 13.035 18.842 21.982 25.406 8.945 6.57 19.273 12.083 30.978 16.562 11.704 4.47 23.315 7.659 34.829 9.562 11.516 1.903 22.888 2.854 34.119 2.854 51.007 0 90.981-12.464 119.909-37.397 26.648-23.223 39.971-50.062 39.971-80.517 0-10.855-1.57-20.984-4.712-30.409-3.141-9.431-7.231-17.514-12.279-24.27zM163.311 198.722c-9.707 0-18.937-2.475-27.694-7.426-8.757-4.95-16.18-11.374-22.27-19.273-6.088-7.898-11.418-16.796-15.987-26.695-4.567-9.896-7.944-19.792-10.135-29.692-2.19-9.895-3.284-19.318-3.284-28.265 0-18.271 4.854-33.974 14.562-47.108 9.705-13.134 23.411-19.701 41.112-19.701 12.563 0 23.935 3.899 34.118 11.704 10.183 7.804 18.177 17.701 23.984 29.692a187.496 187.496 0 0113.417 37.257c3.14 12.847 4.711 24.983 4.711 36.403 0 19.036-4.139 34.317-12.419 45.833-8.282 11.513-21.651 17.271-40.115 17.271zm78.94 214.401c-5.23 8.949-12.319 15.94-21.267 20.981-8.946 5.048-18.509 8.758-28.693 11.14-10.183 2.385-20.889 3.572-32.12 3.572-12.182 0-24.27-1.431-36.258-4.284-11.99-2.851-23.459-7.187-34.403-12.991-10.944-5.8-19.795-13.798-26.551-23.982-6.757-10.184-10.135-21.744-10.135-34.69 0-11.419 2.568-21.601 7.708-30.55 5.142-8.945 11.709-16.084 19.702-21.408 7.994-5.332 17.319-9.713 27.979-13.131 10.66-3.433 20.937-5.808 30.833-7.139 9.895-1.335 19.985-1.995 30.262-1.995 6.283 0 11.043.191 14.277.567 1.143.767 4.043 2.759 8.708 5.996s7.804 5.428 9.423 6.57c1.615 1.137 4.567 3.326 8.85 6.563 4.281 3.237 7.327 5.661 9.135 7.279 1.803 1.618 4.421 4.045 7.849 7.279 3.424 3.237 5.948 6.043 7.566 8.422a982.05 982.05 0 005.996 8.702c2.38 3.433 4.043 6.715 4.998 9.855a158.985 158.985 0 012.707 10.277c.855 3.72 1.283 7.569 1.283 11.57.005 11.987-2.613 22.456-7.849 31.397z"/>
        <path d="M401.998 73.089V0h-36.549v73.089h-73.091v36.547h73.091v73.089h36.549v-73.089h73.083V73.089z"/>
    </symbol>
    <symbol viewBox="0 0 97.395 97.395" id="contacts-social-instagram" xmlns="http://www.w3.org/2000/svg">
        <path d="M12.501 0h72.393c6.875 0 12.5 5.09 12.5 12.5v72.395c0 7.41-5.625 12.5-12.5 12.5H12.501C5.624 97.395 0 92.305 0 84.895V12.5C0 5.09 5.624 0 12.501 0zm58.447 10.821a4.395 4.395 0 00-4.383 4.385v10.495a4.396 4.396 0 004.383 4.385h11.008a4.398 4.398 0 004.385-4.385V15.206a4.397 4.397 0 00-4.385-4.385H70.948zm15.439 30.367h-8.572a28.486 28.486 0 011.25 8.355c0 16.2-13.556 29.332-30.275 29.332-16.718 0-30.272-13.132-30.272-29.332 0-2.904.438-5.708 1.25-8.355h-8.945v41.141a3.884 3.884 0 003.872 3.872h67.822a3.883 3.883 0 003.872-3.872V41.188h-.002zM48.789 29.533c-10.802 0-19.56 8.485-19.56 18.953s8.758 18.953 19.56 18.953c10.803 0 19.562-8.485 19.562-18.953s-8.758-18.953-19.562-18.953z"/>
    </symbol>
    <symbol viewBox="0 0 438.529 438.529" id="contacts-social-pinterest" xmlns="http://www.w3.org/2000/svg">
        <path d="M409.141 109.203c-19.608-33.592-46.205-60.189-79.798-79.796C295.751 9.801 259.065 0 219.281 0 179.5 0 142.812 9.801 109.22 29.407c-33.597 19.604-60.194 46.201-79.8 79.796C9.809 142.8.008 179.485.008 219.267c0 44.35 12.085 84.611 36.258 120.767 24.172 36.172 55.863 62.912 95.073 80.232-.762-20.365.476-37.209 3.709-50.532l28.267-119.348c-4.76-9.329-7.139-20.93-7.139-34.831 0-16.175 4.089-29.689 12.275-40.541 8.186-10.85 18.177-16.274 29.979-16.274 9.514 0 16.841 3.14 21.982 9.42 5.142 6.283 7.705 14.181 7.705 23.7 0 5.896-1.099 13.084-3.289 21.554-2.188 8.471-5.041 18.273-8.562 29.409-3.521 11.132-6.045 20.036-7.566 26.692-2.663 11.608-.476 21.553 6.567 29.838 7.042 8.278 16.372 12.423 27.983 12.423 20.365 0 37.065-11.324 50.107-33.972 13.038-22.655 19.554-50.159 19.554-82.514 0-24.938-8.042-45.21-24.129-60.813-16.085-15.609-38.496-23.417-67.239-23.417-32.161 0-58.192 10.327-78.082 30.978-19.891 20.654-29.836 45.352-29.836 74.091 0 17.132 4.854 31.505 14.56 43.112 3.235 3.806 4.283 7.898 3.14 12.279-.381 1.143-1.141 3.997-2.284 8.562-1.138 4.565-1.903 7.522-2.281 8.851-1.521 6.091-5.14 7.994-10.85 5.708-14.654-6.085-25.791-16.652-33.402-31.689-7.614-15.037-11.422-32.456-11.422-52.246 0-12.753 2.047-25.505 6.14-38.256 4.089-12.756 10.468-25.078 19.126-36.975 8.663-11.9 19.036-22.417 31.123-31.549 12.082-9.135 26.787-16.462 44.108-21.982s35.972-8.28 55.959-8.28c27.032 0 51.295 5.995 72.8 17.986 21.512 11.992 37.925 27.502 49.252 46.537 11.327 19.036 16.987 39.403 16.987 61.101 0 28.549-4.948 54.243-14.842 77.086-9.896 22.839-23.887 40.778-41.973 53.813-18.083 13.042-38.637 19.561-61.675 19.561-11.607 0-22.456-2.714-32.548-8.135-10.085-5.427-17.034-11.847-20.839-19.273-8.566 33.685-13.706 53.77-15.42 60.24-3.616 13.508-11.038 29.119-22.27 46.819 20.367 6.091 41.112 9.13 62.24 9.13 39.781 0 76.47-9.801 110.062-29.41 33.595-19.602 60.192-46.199 79.794-79.791 19.606-33.599 29.407-70.287 29.407-110.065.01-39.778-9.777-76.468-29.376-110.06z"/>
    </symbol>
    <symbol viewBox="0 0 512 512" id="contacts-social-twitter" xmlns="http://www.w3.org/2000/svg">
        <path d="M512 97.248c-19.04 8.352-39.328 13.888-60.48 16.576 21.76-12.992 38.368-33.408 46.176-58.016-20.288 12.096-42.688 20.64-66.56 25.408C411.872 60.704 384.416 48 354.464 48c-58.112 0-104.896 47.168-104.896 104.992 0 8.32.704 16.32 2.432 23.936-87.264-4.256-164.48-46.08-216.352-109.792-9.056 15.712-14.368 33.696-14.368 53.056 0 36.352 18.72 68.576 46.624 87.232-16.864-.32-33.408-5.216-47.424-12.928v1.152c0 51.008 36.384 93.376 84.096 103.136-8.544 2.336-17.856 3.456-27.52 3.456-6.72 0-13.504-.384-19.872-1.792 13.6 41.568 52.192 72.128 98.08 73.12-35.712 27.936-81.056 44.768-130.144 44.768-8.608 0-16.864-.384-25.12-1.44C46.496 446.88 101.6 464 161.024 464c193.152 0 298.752-160 298.752-298.688 0-4.64-.16-9.12-.384-13.568 20.832-14.784 38.336-33.248 52.608-54.496z"/>
    </symbol>
</svg>